# xmcd CD database file
#
# Track frame offsets:
#	150
#	13000
#	24385
#	34292
#	47095
#	57392
#	67525
#	78012
#	88000
#	96342
#	107670
#	118967
#	130652
#	142610
#	153972
#	162910
#	174647
#	184260
#	195685
#	206922
#	217282
#	226810
#	236792
#	244820
#	253400
#	264617
#	273900
#	285980
#	299290
#	307987
#	320415
#	331805
#
# Disc length: 4586 seconds
#
# Revision: 2
# Processed by: cddbd v1.5.2PL0 Copyright (c) Steve Scherf et al.
# Submitted via: CDex 1.70beta2
#
DISCID=cd11e820
DTITLE=Various Artist - Miami Rockabilly
DYEAR=1900
DGENRE=Rock and Roll
TTITLE0=Wesley Hardin With The Roxters - Any Way
TTITLE1=Buck Trail - Knocked Out Joint On Mars
TTITLE2=Roxsters - I Was Doing It Too
TTITLE3=Kent Westberry and The Chaperones - My Baby Don't Rock Me
TTITLE4=Tommy Spurlin - Hang Loose
TTITLE5=The Roxsters - Heart Throb
TTITLE6=Tommy Spurlin - No Time For Heartaches
TTITLE7=Roxsters - So Long
TTITLE8=Buck Trail - Blues Keep Knocking
TTITLE9=Tommy Spurlin and The Southern Boys - One Eyed Sam
TTITLE10=Kent Westberry and The Chaperones - No Place To Park
TTITLE11=Rhythm Rockets - My Shadow
TTITLE12=Ray Pate and The Rhythm Rockets - Boppin' Strollin'& Messin' Around
TTITLE13=Art Law - Kitty Kat Rock
TTITLE14=Ross Minimi - Oh! Janet
TTITLE15=Rhythm Rockets - Lucky Day
TTITLE16=Ray Pate and The Rhythm Rockets - Here, There, Everywhere 
TTITLE17=Ross Minimi - Baby Rock
TTITLE18=Don Pate and The Rhythm Rockets - Donny's Boogie
TTITLE19=Buck Trail and The Dead Enders - Honky Tonk On Second Street
TTITLE20=Bobby Gay and Sparkle Tones - Let's Dance
TTITLE21=Jim Voytek - Sweetest Gal In Town
TTITLE22=Rhythm Rockers - Everybody's Gonna Do The Rock'n'Roll 
TTITLE23=Jimmy Gale's Imperials - Dandy Sandy
TTITLE24=Wally Deane and The Flips - Rockin' With Rosie
TTITLE25=Curley Jim and The Billey Rocks - Rock'n'Roll Itch
TTITLE26=Wally Deane and The Flips - I'm Tellin' Ya, Baby
TTITLE27=Roxters - She's Mine
TTITLE28=Jimmy Gale's Imperials - We're Gonna Rock All Night
TTITLE29=Curley Jim and The Billey Rocks - Airforce Blues
TTITLE30=Frantics Four - TV Mama 
TTITLE31=Frantics Four - Down By The Old Millstream
EXTD=
EXTT0=
EXTT1=
EXTT2=
EXTT3=
EXTT4=
EXTT5=
EXTT6=
EXTT7=
EXTT8=
EXTT9=
EXTT10=
EXTT11=
EXTT12=
EXTT13=
EXTT14=
EXTT15=
EXTT16=
EXTT17=
EXTT18=
EXTT19=
EXTT20=
EXTT21=
EXTT22=
EXTT23=
EXTT24=
EXTT25=
EXTT26=
EXTT27=
EXTT28=
EXTT29=
EXTT30=
EXTT31=
PLAYORDER=
